<mxfile host="Electron" agent="Mozilla/5.0 (Windows NT 10.0; Win64; x64) AppleWebKit/537.36 (KHTML, like Gecko) draw.io/24.7.17 Chrome/128.0.6613.36 Electron/32.0.1 Safari/537.36" version="24.7.17">
  <diagram name="Page-1" id="2AqIhHoSA2kZ4RKzxEji">
    <mxGraphModel dx="989" dy="577" grid="0" gridSize="10" guides="1" tooltips="1" connect="1" arrows="1" fold="1" page="0" pageScale="1" pageWidth="850" pageHeight="1100" math="0" shadow="0">
      <root>
        <mxCell id="0" />
        <mxCell id="1" parent="0" />
        <mxCell id="1PlxJU9n-W_JGu7K7ZkU-10" style="edgeStyle=orthogonalEdgeStyle;rounded=0;orthogonalLoop=1;jettySize=auto;html=1;" edge="1" parent="1" source="1PlxJU9n-W_JGu7K7ZkU-2" target="1PlxJU9n-W_JGu7K7ZkU-3">
          <mxGeometry relative="1" as="geometry">
            <mxPoint x="360" y="470" as="targetPoint" />
          </mxGeometry>
        </mxCell>
        <mxCell id="1PlxJU9n-W_JGu7K7ZkU-2" value="" style="ellipse;whiteSpace=wrap;html=1;aspect=fixed;" vertex="1" parent="1">
          <mxGeometry x="190" y="410" width="120" height="120" as="geometry" />
        </mxCell>
        <mxCell id="1PlxJU9n-W_JGu7K7ZkU-11" style="edgeStyle=orthogonalEdgeStyle;rounded=0;orthogonalLoop=1;jettySize=auto;html=1;entryX=0;entryY=0.5;entryDx=0;entryDy=0;" edge="1" parent="1" source="1PlxJU9n-W_JGu7K7ZkU-3" target="1PlxJU9n-W_JGu7K7ZkU-4">
          <mxGeometry relative="1" as="geometry" />
        </mxCell>
        <mxCell id="1PlxJU9n-W_JGu7K7ZkU-3" value="" style="ellipse;whiteSpace=wrap;html=1;aspect=fixed;" vertex="1" parent="1">
          <mxGeometry x="365" y="410" width="120" height="120" as="geometry" />
        </mxCell>
        <mxCell id="1PlxJU9n-W_JGu7K7ZkU-12" style="edgeStyle=orthogonalEdgeStyle;rounded=0;orthogonalLoop=1;jettySize=auto;html=1;exitX=1;exitY=0.5;exitDx=0;exitDy=0;entryX=0;entryY=0.5;entryDx=0;entryDy=0;" edge="1" parent="1" source="1PlxJU9n-W_JGu7K7ZkU-4" target="1PlxJU9n-W_JGu7K7ZkU-5">
          <mxGeometry relative="1" as="geometry" />
        </mxCell>
        <mxCell id="1PlxJU9n-W_JGu7K7ZkU-4" value="" style="ellipse;whiteSpace=wrap;html=1;aspect=fixed;" vertex="1" parent="1">
          <mxGeometry x="560" y="410" width="120" height="120" as="geometry" />
        </mxCell>
        <mxCell id="1PlxJU9n-W_JGu7K7ZkU-42" style="edgeStyle=orthogonalEdgeStyle;rounded=0;orthogonalLoop=1;jettySize=auto;html=1;entryX=0.5;entryY=1;entryDx=0;entryDy=0;curved=1;" edge="1" parent="1" source="1PlxJU9n-W_JGu7K7ZkU-5" target="1PlxJU9n-W_JGu7K7ZkU-3">
          <mxGeometry relative="1" as="geometry">
            <Array as="points">
              <mxPoint x="810" y="600" />
              <mxPoint x="425" y="600" />
            </Array>
          </mxGeometry>
        </mxCell>
        <mxCell id="1PlxJU9n-W_JGu7K7ZkU-5" value="" style="ellipse;whiteSpace=wrap;html=1;aspect=fixed;" vertex="1" parent="1">
          <mxGeometry x="750" y="410" width="120" height="120" as="geometry" />
        </mxCell>
        <mxCell id="1PlxJU9n-W_JGu7K7ZkU-6" value="IDLE" style="text;html=1;align=center;verticalAlign=middle;whiteSpace=wrap;rounded=0;" vertex="1" parent="1">
          <mxGeometry x="220" y="430" width="60" height="30" as="geometry" />
        </mxCell>
        <mxCell id="1PlxJU9n-W_JGu7K7ZkU-7" value="N_SET" style="text;html=1;align=center;verticalAlign=middle;whiteSpace=wrap;rounded=0;" vertex="1" parent="1">
          <mxGeometry x="395" y="430" width="60" height="30" as="geometry" />
        </mxCell>
        <mxCell id="1PlxJU9n-W_JGu7K7ZkU-8" value="M_SET" style="text;html=1;align=center;verticalAlign=middle;whiteSpace=wrap;rounded=0;" vertex="1" parent="1">
          <mxGeometry x="590" y="430" width="60" height="30" as="geometry" />
        </mxCell>
        <mxCell id="1PlxJU9n-W_JGu7K7ZkU-9" value="DISPLAY" style="text;html=1;align=center;verticalAlign=middle;whiteSpace=wrap;rounded=0;" vertex="1" parent="1">
          <mxGeometry x="780" y="430" width="60" height="30" as="geometry" />
        </mxCell>
        <mxCell id="1PlxJU9n-W_JGu7K7ZkU-13" value="00&lt;span style=&quot;color: rgba(0, 0, 0, 0); font-family: monospace; font-size: 0px; text-align: start; text-wrap: nowrap;&quot;&gt;%3CmxGraphModel%3E%3Croot%3E%3CmxCell%20id%3D%220%22%2F%3E%3CmxCell%20id%3D%221%22%20parent%3D%220%22%2F%3E%3CmxCell%20id%3D%222%22%20value%3D%22M_SET%22%20style%3D%22text%3Bhtml%3D1%3Balign%3Dcenter%3BverticalAlign%3Dmiddle%3BwhiteSpace%3Dwrap%3Brounded%3D0%3B%22%20vertex%3D%221%22%20parent%3D%221%22%3E%3CmxGeometry%20x%3D%22570%22%20y%3D%22360%22%20width%3D%2260%22%20height%3D%2230%22%20as%3D%22geometry%22%2F%3E%3C%2FmxCell%3E%3C%2Froot%3E%3C%2FmxGraphModel%3E&lt;/span&gt;" style="text;html=1;align=center;verticalAlign=middle;whiteSpace=wrap;rounded=0;" vertex="1" parent="1">
          <mxGeometry x="220" y="490" width="60" height="30" as="geometry" />
        </mxCell>
        <mxCell id="1PlxJU9n-W_JGu7K7ZkU-15" value="01" style="text;html=1;align=center;verticalAlign=middle;whiteSpace=wrap;rounded=0;" vertex="1" parent="1">
          <mxGeometry x="395" y="490" width="60" height="30" as="geometry" />
        </mxCell>
        <mxCell id="1PlxJU9n-W_JGu7K7ZkU-16" value="10" style="text;html=1;align=center;verticalAlign=middle;whiteSpace=wrap;rounded=0;" vertex="1" parent="1">
          <mxGeometry x="590" y="490" width="60" height="30" as="geometry" />
        </mxCell>
        <mxCell id="1PlxJU9n-W_JGu7K7ZkU-17" value="11" style="text;html=1;align=center;verticalAlign=middle;whiteSpace=wrap;rounded=0;" vertex="1" parent="1">
          <mxGeometry x="780" y="490" width="60" height="30" as="geometry" />
        </mxCell>
        <mxCell id="1PlxJU9n-W_JGu7K7ZkU-24" style="edgeStyle=orthogonalEdgeStyle;rounded=0;orthogonalLoop=1;jettySize=auto;html=1;exitX=0.5;exitY=0;exitDx=0;exitDy=0;entryX=0.347;entryY=0.028;entryDx=0;entryDy=0;curved=1;entryPerimeter=0;" edge="1" parent="1" source="1PlxJU9n-W_JGu7K7ZkU-2" target="1PlxJU9n-W_JGu7K7ZkU-2">
          <mxGeometry relative="1" as="geometry">
            <Array as="points">
              <mxPoint x="250" y="360" />
              <mxPoint x="232" y="360" />
            </Array>
          </mxGeometry>
        </mxCell>
        <mxCell id="1PlxJU9n-W_JGu7K7ZkU-26" style="edgeStyle=orthogonalEdgeStyle;rounded=0;orthogonalLoop=1;jettySize=auto;html=1;exitX=0.5;exitY=0;exitDx=0;exitDy=0;entryX=0.347;entryY=0.028;entryDx=0;entryDy=0;curved=1;entryPerimeter=0;" edge="1" parent="1">
          <mxGeometry relative="1" as="geometry">
            <mxPoint x="425" y="410" as="sourcePoint" />
            <mxPoint x="407" y="413" as="targetPoint" />
            <Array as="points">
              <mxPoint x="425" y="360" />
              <mxPoint x="407" y="360" />
            </Array>
          </mxGeometry>
        </mxCell>
        <mxCell id="1PlxJU9n-W_JGu7K7ZkU-27" style="edgeStyle=orthogonalEdgeStyle;rounded=0;orthogonalLoop=1;jettySize=auto;html=1;exitX=0.5;exitY=0;exitDx=0;exitDy=0;entryX=0.347;entryY=0.028;entryDx=0;entryDy=0;curved=1;entryPerimeter=0;" edge="1" parent="1">
          <mxGeometry relative="1" as="geometry">
            <mxPoint x="618" y="410" as="sourcePoint" />
            <mxPoint x="600" y="413" as="targetPoint" />
            <Array as="points">
              <mxPoint x="618" y="360" />
              <mxPoint x="600" y="360" />
            </Array>
          </mxGeometry>
        </mxCell>
        <mxCell id="1PlxJU9n-W_JGu7K7ZkU-28" style="edgeStyle=orthogonalEdgeStyle;rounded=0;orthogonalLoop=1;jettySize=auto;html=1;exitX=0.5;exitY=0;exitDx=0;exitDy=0;entryX=0.347;entryY=0.028;entryDx=0;entryDy=0;curved=1;entryPerimeter=0;" edge="1" parent="1">
          <mxGeometry relative="1" as="geometry">
            <mxPoint x="808" y="410" as="sourcePoint" />
            <mxPoint x="790" y="413" as="targetPoint" />
            <Array as="points">
              <mxPoint x="808" y="360" />
              <mxPoint x="790" y="360" />
            </Array>
          </mxGeometry>
        </mxCell>
        <mxCell id="1PlxJU9n-W_JGu7K7ZkU-29" value="&lt;pre style=&quot;font-size: 14px;&quot;&gt;tap&lt;/pre&gt;" style="text;html=1;align=center;verticalAlign=middle;whiteSpace=wrap;rounded=0;fontStyle=0;fontSize=14;" vertex="1" parent="1">
          <mxGeometry x="305" y="440" width="60" height="30" as="geometry" />
        </mxCell>
        <mxCell id="1PlxJU9n-W_JGu7K7ZkU-35" value="&lt;pre style=&quot;font-size: 14px;&quot;&gt;!tap&lt;/pre&gt;" style="text;html=1;align=center;verticalAlign=middle;whiteSpace=wrap;rounded=0;fontStyle=0;fontSize=14;" vertex="1" parent="1">
          <mxGeometry x="210" y="330" width="60" height="30" as="geometry" />
        </mxCell>
        <mxCell id="1PlxJU9n-W_JGu7K7ZkU-36" value="&lt;pre style=&quot;font-size: 14px;&quot;&gt;counter&lt;/pre&gt;" style="text;html=1;align=center;verticalAlign=middle;whiteSpace=wrap;rounded=0;fontStyle=0;fontSize=14;" vertex="1" parent="1">
          <mxGeometry x="491" y="438" width="60" height="30" as="geometry" />
        </mxCell>
        <mxCell id="1PlxJU9n-W_JGu7K7ZkU-37" value="&lt;pre style=&quot;font-size: 14px;&quot;&gt;counter2&lt;/pre&gt;" style="text;html=1;align=center;verticalAlign=middle;whiteSpace=wrap;rounded=0;fontStyle=0;fontSize=14;" vertex="1" parent="1">
          <mxGeometry x="685" y="437" width="60" height="30" as="geometry" />
        </mxCell>
        <mxCell id="1PlxJU9n-W_JGu7K7ZkU-38" value="&lt;pre style=&quot;font-size: 14px;&quot;&gt;!counter&lt;/pre&gt;" style="text;html=1;align=center;verticalAlign=middle;whiteSpace=wrap;rounded=0;fontStyle=0;fontSize=14;" vertex="1" parent="1">
          <mxGeometry x="390" y="330" width="60" height="30" as="geometry" />
        </mxCell>
        <mxCell id="1PlxJU9n-W_JGu7K7ZkU-39" value="&lt;pre style=&quot;font-size: 14px;&quot;&gt;!counter2&lt;/pre&gt;" style="text;html=1;align=center;verticalAlign=middle;whiteSpace=wrap;rounded=0;fontStyle=0;fontSize=14;" vertex="1" parent="1">
          <mxGeometry x="580" y="330" width="60" height="30" as="geometry" />
        </mxCell>
        <mxCell id="1PlxJU9n-W_JGu7K7ZkU-40" value="&lt;pre style=&quot;font-size: 14px;&quot;&gt;!tap&lt;/pre&gt;" style="text;html=1;align=center;verticalAlign=middle;whiteSpace=wrap;rounded=0;fontStyle=0;fontSize=14;" vertex="1" parent="1">
          <mxGeometry x="770" y="330" width="60" height="30" as="geometry" />
        </mxCell>
        <mxCell id="1PlxJU9n-W_JGu7K7ZkU-43" value="&lt;pre style=&quot;font-size: 14px;&quot;&gt;tap&lt;/pre&gt;" style="text;html=1;align=center;verticalAlign=middle;whiteSpace=wrap;rounded=0;fontStyle=0;fontSize=14;" vertex="1" parent="1">
          <mxGeometry x="580" y="576" width="60" height="30" as="geometry" />
        </mxCell>
        <mxCell id="1PlxJU9n-W_JGu7K7ZkU-45" value="&lt;b&gt;IDLE:&lt;/b&gt; Waiting fot tap sequence, initialise n_coords and m_coords to 0." style="text;html=1;align=left;verticalAlign=middle;whiteSpace=wrap;rounded=0;" vertex="1" parent="1">
          <mxGeometry x="175" y="119" width="500" height="30" as="geometry" />
        </mxCell>
        <mxCell id="1PlxJU9n-W_JGu7K7ZkU-46" value="&lt;b&gt;N_SET:&lt;/b&gt;&amp;nbsp;After &lt;font face=&quot;Courier New&quot;&gt;tap&lt;/font&gt; move to &lt;font face=&quot;Courier New&quot;&gt;N_SET&lt;/font&gt; and count number of taps, storing in &lt;font face=&quot;Courier New&quot;&gt;n_coords&lt;/font&gt;. Every tap sets a counter which incements every 1 second (&lt;font face=&quot;Courier New&quot;&gt;counter&lt;/font&gt;), and resets upon a new tap. If timer reaches 3 due to inactivity of taps, transition to &lt;font face=&quot;Courier New&quot;&gt;M_SET&lt;/font&gt;.&amp;nbsp; &amp;nbsp;" style="text;html=1;align=left;verticalAlign=middle;whiteSpace=wrap;rounded=0;" vertex="1" parent="1">
          <mxGeometry x="175" y="169" width="500" height="30" as="geometry" />
        </mxCell>
        <mxCell id="1PlxJU9n-W_JGu7K7ZkU-47" value="&lt;b&gt;M_SET:&lt;/b&gt;&amp;nbsp;Taps are counted again in &lt;font face=&quot;Courier New&quot;&gt;M_SET&lt;/font&gt;&amp;nbsp;and stored in &lt;font face=&quot;Courier New&quot;&gt;m_coords&lt;/font&gt;.&lt;font face=&quot;Courier New&quot;&gt;&amp;nbsp;&lt;/font&gt;&lt;font face=&quot;Helvetica&quot;&gt;A&lt;/font&gt;fter inactivity for 3 seconds, move to &lt;font face=&quot;Courier New&quot;&gt;DISPLAY&lt;/font&gt;. Stay in this state unless a new&amp;nbsp; sequence is input." style="text;html=1;align=left;verticalAlign=middle;whiteSpace=wrap;rounded=0;" vertex="1" parent="1">
          <mxGeometry x="175" y="219" width="500" height="30" as="geometry" />
        </mxCell>
        <mxCell id="1PlxJU9n-W_JGu7K7ZkU-48" value="&lt;b&gt;DISPLAY:&lt;/b&gt;&amp;nbsp;Simply holds the &lt;font face=&quot;Courier New&quot;&gt;n_coords &lt;/font&gt;and &lt;font face=&quot;Courier New&quot;&gt;m_coords &lt;/font&gt;until receiving a new tap, in which the state transitions back to &lt;font face=&quot;Courier New&quot;&gt;N_SET &lt;/font&gt;where the new sequence can be entered.&amp;nbsp;" style="text;html=1;align=left;verticalAlign=middle;whiteSpace=wrap;rounded=0;" vertex="1" parent="1">
          <mxGeometry x="175" y="269" width="500" height="30" as="geometry" />
        </mxCell>
      </root>
    </mxGraphModel>
  </diagram>
</mxfile>
